<?xml version="1.0" encoding="utf-8"?>
<!-- Generator: Adobe Illustrator 16.0.0, SVG Export Plug-In . SVG Version: 6.00 Build 0)  -->
<!DOCTYPE svg PUBLIC "-//W3C//DTD SVG 1.1//EN" "http://www.w3.org/Graphics/SVG/1.1/DTD/svg11.dtd">
<svg version="1.1" id="Icons" xmlns="http://www.w3.org/2000/svg" xmlns:xlink="http://www.w3.org/1999/xlink" x="0px" y="0px"
	 width="512px" height="512px" viewBox="0 0 512 512" enable-background="new 0 0 512 512" xml:space="preserve">
<path fill="#FFFFFF" d="M255.827,284.209c-62.402-2.035-77.368-55.462-80.571-72.711c-6.007-1.392-11.36-4.792-15.173-9.638
	c-4.353-5.999-6.373-13.377-5.681-20.757c-1-8.041,1.454-16.128,6.753-22.258c1.479-1.517,3.18-2.8,5.044-3.806
	c-11.598-18.725-17.31-40.499-16.398-62.505c7.224-51.615,48.82-56.638,61.849-56.929c5.996-6.974,13.492-12.502,21.926-16.17
	c15.799-6.373,33.262-7.346,49.67-2.768c32.257,8.42,53.768,24.569,63.973,48.003c14.529,33.308,1.785,71.646-5.535,88.86
	c2.792,0.907,5.365,2.384,7.556,4.338c6.042,6.134,8.895,14.725,7.722,23.254c0.699,7.379-1.318,14.759-5.674,20.757
	c-3.816,4.845-9.172,8.244-15.18,9.638C332.904,228.747,317.973,282.174,255.827,284.209z M177.761,166.103
	c-2.454-0.114-4.854,0.74-6.684,2.38c-2.558,3.583-3.577,8.04-2.83,12.378c0.029,0.462,0.013,0.925-0.049,1.384
	c-0.376,3.972,0.65,7.949,2.899,11.244c2.834,3.166,6.825,5.056,11.07,5.244c3.261,0.386,5.802,3.01,6.082,6.283
	c0.229,2.574,6.365,63.356,67.591,65.362c60.887-2.006,67.052-62.789,67.28-65.376c0.285-3.267,2.824-5.884,6.081-6.269
	c4.245-0.186,8.237-2.077,11.07-5.245c2.259-3.311,3.285-7.309,2.899-11.298c-0.059-0.445-0.074-0.895-0.049-1.342
	c0.756-4.483-0.373-9.08-3.121-12.703c-2.16-1.592-4.85-2.295-7.514-1.965c-3.762,0.667-7.354-1.842-8.021-5.604
	c-0.272-1.536-0.019-3.118,0.722-4.491c0.256-0.484,25.6-48.585,9.313-85.968c-8.434-19.317-26.846-32.803-54.735-40.081
	c-13.405-3.793-27.687-3.064-40.635,2.076c-7.367,3.174-13.788,8.198-18.64,14.585c-1.421,1.933-3.748,2.982-6.137,2.768
	c-1.792-0.146-44.156-2.885-50.799,44.475l0,0c0,0-1.917,37.674,19.906,60.506c1.945,2.033,2.465,5.042,1.315,7.61
	c-1.063,2.643-3.712,4.295-6.552,4.089L177.761,166.103z"/>
<path fill="#FFFFFF" d="M331.285,166.269c-3.711,0.003-6.764-2.921-6.92-6.628c-0.082-1.792-2.227-43.589-33.432-47.609
	c-28.848,3.664-57.926-4.76-80.35-23.275c-8.821,6.635-29.149,26.804-25.24,69.819c0.112,3.82-2.894,7.007-6.713,7.119
	c-3.492,0.103-6.512-2.414-7.042-5.866c-5.736-63.107,34.788-85.013,36.511-85.912c2.63-1.373,5.841-0.916,7.985,1.134
	c19.956,18.076,46.804,26.547,73.521,23.199c0.633-0.103,1.277-0.125,1.916-0.069c35.176,3.66,45.921,41.451,46.682,60.886
	c0.148,3.812-2.816,7.024-6.628,7.182L331.285,166.269z"/>
<path fill="#FFFFFF" d="M450.346,498.162H61.654c-3.821,0-6.919-3.098-6.919-6.919v-77.132c0.103-50.759,41.264-91.86,92.022-91.891
	h13.284c3.821,0,6.919,3.098,6.919,6.919s-3.098,6.919-6.919,6.919h-13.284c-43.119,0.023-78.088,34.934-78.184,78.053v70.213
	h374.854v-70.213c-0.05-43.087-34.966-78.003-78.053-78.053h-14.239c-3.82,0-6.918-3.098-6.918-6.919s3.098-6.919,6.918-6.919
	h14.239c50.72,0.072,91.818,41.171,91.891,91.891v77.132C457.265,495.064,454.167,498.162,450.346,498.162z"/>
<path fill="#FFFFFF" d="M279.123,498.162c-3.821,0.001-6.92-3.097-6.92-6.918c0-0.346,0.025-0.69,0.077-1.032l28.001-185.31
	c0.571-3.777,4.098-6.377,7.876-5.806c0.324,0.049,0.646,0.121,0.96,0.216l48.321,14.564c3.658,1.104,5.729,4.963,4.626,8.622
	c-0.109,0.365-0.25,0.722-0.42,1.064l-19.207,38.538l11.141,12.503c2.027,2.291,2.309,5.643,0.691,8.24l-69.266,112.038
	C283.744,496.92,281.52,498.161,279.123,498.162z M312.777,314.866l-21.761,144.003l48.8-78.875l-10.814-12.143
	c-1.883-2.111-2.291-5.155-1.031-7.688l17.629-35.383L312.777,314.866z"/>
<path fill="#FFFFFF" d="M232.081,498.162c-2.398,0.001-4.626-1.239-5.888-3.279l-69.286-112.018
	c-1.617-2.598-1.335-5.948,0.692-8.24l11.14-12.503l-19.207-38.538c-1.691-3.427-0.285-7.575,3.142-9.267
	c0.343-0.169,0.699-0.31,1.064-0.42l48.322-14.564c3.66-1.098,7.517,0.979,8.615,4.64c0.093,0.312,0.165,0.629,0.213,0.951
	l28.015,185.31c0.558,3.78-2.054,7.297-5.834,7.854C232.742,498.137,232.412,498.161,232.081,498.162z M171.389,379.974
	l48.799,78.875l-21.76-143.982l-32.823,9.894l17.623,35.384c1.261,2.531,0.856,5.574-1.024,7.687L171.389,379.974z"/>
<path fill="#FFFFFF" d="M256.118,369.159c-14.96-0.011-29.907-0.917-44.758-2.713c-3.806-0.349-6.608-3.716-6.259-7.521
	c0.349-3.806,3.716-6.607,7.521-6.259c0.128,0.012,0.257,0.026,0.384,0.046c28.277,3.478,56.874,3.478,85.151,0
	c3.799-0.411,7.212,2.336,7.622,6.135c0.401,3.705-2.204,7.062-5.893,7.592C285.368,368.262,270.75,369.17,256.118,369.159z"/>
<path fill="#FFFFFF" d="M307.138,312.853c-2.184-0.008-4.235-1.047-5.535-2.802c-10.281-13.9-12.143-41.451-12.315-44.544
	c-0.221-3.813,2.69-7.084,6.504-7.307c3.798-0.179,7.043,2.71,7.307,6.504c0.422,7.278,2.981,28.14,9.623,37.12
	c2.271,3.074,1.619,7.406-1.455,9.676c-1.182,0.872-2.611,1.347-4.08,1.353H307.138z"/>
<path fill="#FFFFFF" d="M204.066,312.853c-3.821-0.017-6.905-3.128-6.888-6.949c0.006-1.47,0.48-2.897,1.353-4.079
	c6.656-8.994,9.209-29.849,9.631-37.12c0.222-3.821,3.499-6.739,7.32-6.518s6.739,3.499,6.518,7.32
	c-0.173,3.093-2.076,30.644-12.316,44.544C208.368,311.829,206.28,312.871,204.066,312.853z"/>
<path fill="#FFFFFF" d="M395.451,401.187c-3.744,0.002-6.811-2.976-6.92-6.718c-1.293-45.057-18.424-59.233-18.59-59.372
	c-2.975-2.361-3.51-6.669-1.205-9.687c2.291-2.994,6.564-3.586,9.583-1.328c0.913,0.692,22.535,17.484,24.051,69.985
	c0.108,3.816-2.896,6.999-6.712,7.112L395.451,401.187z"/>
<path fill="#FFFFFF" d="M395.485,442.036c-15.104,0.004-27.354-12.238-27.357-27.344s12.238-27.354,27.344-27.357
	s27.354,12.238,27.357,27.344c0,0.002,0,0.005,0,0.007C422.813,429.781,410.582,442.017,395.485,442.036z M395.485,401.173
	c-7.463-0.004-13.516,6.043-13.52,13.506s6.043,13.516,13.506,13.52s13.516-6.043,13.52-13.506c0-0.002,0-0.005,0-0.007
	C408.983,407.229,402.942,401.185,395.485,401.173L395.485,401.173z"/>
<path fill="#FFFFFF" d="M111.27,401.187c-3.637,0.009-6.661-2.8-6.919-6.428c-3.771-53.103,25.489-70.074,26.735-70.773
	c3.328-1.878,7.549-0.702,9.427,2.626c1.878,3.328,0.703,7.549-2.625,9.427c-1.052,0.623-22.833,14.066-19.74,57.745
	c0.27,3.812-2.602,7.12-6.414,7.39L111.27,401.187z"/>
<path fill="#FFFFFF" d="M97.273,456.586c-2.17,0.01-4.22-0.999-5.535-2.726c-3.377-4.436-5.865-9.482-7.327-14.862
	c-6.685-21.81,5.442-44.934,27.185-51.836c10.009-2.814,20.73-1.488,29.751,3.681c16.027,9.26,24.629,27.49,21.587,45.748
	c-0.626,3.77-4.19,6.317-7.96,5.69c-3.77-0.626-6.318-4.19-5.691-7.96c2.079-12.507-3.771-25-14.71-31.412
	c-5.819-3.36-12.746-4.24-19.221-2.442c-14.428,4.825-22.288,20.361-17.629,34.844c1.001,3.684,2.707,7.138,5.023,10.171
	c2.312,3.043,1.719,7.383-1.323,9.695c-1.202,0.913-2.668,1.408-4.177,1.409H97.273z"/>
<path fill="#FFFFFF" d="M156.202,442.389c-0.27,0-0.547,0-0.824-0.041l-7.797-0.921c-3.796-0.45-6.508-3.894-6.058-7.69
	c0.451-3.796,3.894-6.508,7.69-6.058l7.798,0.928c3.794,0.451,6.504,3.893,6.053,7.688c-0.414,3.478-3.361,6.098-6.863,6.102
	V442.389z"/>
<path fill="#FFFFFF" d="M97.273,456.648c-3.821,0.006-6.923-3.088-6.928-6.909c-0.004-2.899,1.801-5.494,4.521-6.499l8.303-3.065
	c3.583-1.338,7.571,0.482,8.908,4.064c1.337,3.583-0.482,7.571-4.065,8.908l-8.303,3.072
	C98.929,456.508,98.104,456.653,97.273,456.648z"/>
</svg>
