<?xml version="1.0" encoding="utf-8"?>
<!-- Generator: Adobe Illustrator 16.0.0, SVG Export Plug-In . SVG Version: 6.00 Build 0)  -->
<!DOCTYPE svg PUBLIC "-//W3C//DTD SVG 1.1//EN" "http://www.w3.org/Graphics/SVG/1.1/DTD/svg11.dtd">
<svg version="1.1" id="Capa_1" xmlns="http://www.w3.org/2000/svg" xmlns:xlink="http://www.w3.org/1999/xlink" x="0px" y="0px"
	 width="576px" height="288px" viewBox="0 0 576 288" enable-background="new 0 0 576 288" xml:space="preserve">
<g>
	<g>
		<path fill="#FFFFFF" d="M492.114,238.966h-11.735V32.306c0-13.255-10.784-24.039-24.041-24.039H138.623
			c-13.255,0-24.04,10.784-24.04,24.039v206.66H102.85c-3.23,0-5.851,2.617-5.851,5.849v7.006c0,17.295,14.071,31.365,31.367,31.365
			h256.857c3.229,0,5.852-2.619,5.852-5.849c0-3.23-2.62-5.849-5.852-5.849H128.367c-10.845,0-19.668-8.825-19.668-19.668v-1.157
			h139.649v10.412c0,3.23,2.618,5.85,5.849,5.85h86.568c3.23,0,5.853-2.619,5.853-5.85v-10.412h139.646v1.157
			c0,10.843-8.823,19.668-19.667,19.668h-40.033c-3.229,0-5.85,2.618-5.85,5.849c0,3.229,2.618,5.849,5.85,5.849h40.033
			c17.295,0,31.366-14.071,31.366-31.365v-7.006C497.963,241.583,495.345,238.966,492.114,238.966z M334.917,255.223h-74.869v-4.56
			h74.869V255.223z M468.681,238.47H126.285V32.306c0-6.804,5.535-12.34,12.339-12.34h317.717c6.806,0,12.34,5.536,12.34,12.34
			V238.47L468.681,238.47z"/>
	</g>
</g>
<g>
	<g>
		<path fill="#FFFFFF" d="M441.818,31.087H153.146c-9.54,0-17.302,7.761-17.302,17.302v62.24c0,3.231,2.619,5.851,5.851,5.851
			c3.23,0,5.85-2.62,5.85-5.851V48.39c0-3.089,2.513-5.602,5.602-5.602h288.673c3.089,0,5.601,2.515,5.601,5.602v167.989H147.544
			v-63.633c0-3.231-2.619-5.851-5.85-5.851c-3.231,0-5.851,2.619-5.851,5.851v69.483c0,3.23,2.619,5.848,5.851,5.848h311.574
			c3.229,0,5.851-2.617,5.851-5.848V48.389C459.119,38.848,451.358,31.087,441.818,31.087z"/>
	</g>
</g>
</svg>
